<?xml version="1.0" encoding="utf-8"?>
<!-- Generator: Adobe Illustrator 25.4.1, SVG Export Plug-In . SVG Version: 6.00 Build 0)  -->
<svg version="1.1" id="Слой_1" xmlns="http://www.w3.org/2000/svg" xmlns:xlink="http://www.w3.org/1999/xlink" x="0px" y="0px"
	 viewBox="0 0 982.1 512.4" style="enable-background:new 0 0 982.1 512.4;" xml:space="preserve">
<style type="text/css">
	.st0{fill:#FFFFFF;}
	.st1{fill:#1D1D1B;}
	.st2{fill:#141417;}
	.st3{fill:#EFEAE1;}
	.st4{fill:#C7AE69;}
	.st5{fill:#7D2119;}
</style>
<g>
	<g>
		<g>
			<path class="st0" d="M778.2,30.5c-0.9,0.9-10.7-5.3-12.5-6.1c-1.3-0.6-2.9-0.3-4.1-0.9c-1-0.6-1.3-2.7-2.5-3.3
				c-1.6-0.8-4.1-0.2-6.4-1c-4.4-1.6-7.7-7.2-13.8-6.8c-1.6,0.1-3.3,1.6-4.7,1.2c-3.2-0.7-7.4-9-13.1-2.1c10.8,3.9,22.5,6,33.2,10.2
				c7.3,2.9,9.9,6.1,15.9,9.7c7.5,4.4,9.2,4.1,16.5,9.9c2.5,2,9.8,5.5,11.2,7c1.4,1.4,1.7,4.3,2.9,6.2c2.5,3.9,9,8.9,12.3,13.3
				c22.7,30.1,27.6,89.3,16.4,124.6c-1.7,5.4-5.8,12.7-7.4,18.1c-0.7,2.4,1.1,5.5-0.7,9.4c-1.1,2.4-2.7,2.4-3.7,3.8
				c-0.9,1.3,0,3.4-0.8,4.7c-0.5,0.8-3.3,1.7-4.7,3c-3.2,3-5.6,10.3-10.3,9.6c2.5-3.6,5.4-6.8,7.6-10.6c3.3-5.9,7.1-15.1,10-21.5
				c0.5-1,0.8-1.9,0.6-3.1c-5.3,1.2-3.3,3.4-4.9,6.1c-0.6,1-6.1,5-7.1,7.2c-3.5-2.3,3-4.3,0-6.6c-2.2,1.7-7.6,11.6-9.1,12.4
				c-1.6,0.8-1-2.9-2.9-3l2.1-6.1c-4.1,1.8-5,5.6-7.4,8.3c-7.4,8.2-20,15.4-27.8,22.9c-0.5,0.5-0.5,2-1.2,2.7
				c-1.4,1.4-4.3,1-4.6,3.8c-0.1,1.3,1,2.5,0.7,3.9c-0.2,0.8-1.4,1.5-1.5,2.7c-0.1,1.1,0.9,2.5,0.7,3.2c-0.4,1.8-4-0.3-0.7,4.2
				c-0.3,1.3-6,2.3-6.5,3.1c-0.5,0.9,0.1,2.8-0.1,3.2c-0.2,0.2-2.6-0.3-3.6,0c-1.1,0.3-0.9,3.3-3.5,2.5c-2.1-0.6-1.1-6.3-3.3-5.7
				c-3.4,0.9-5,6.2-8.7,5.7c-0.5-0.5,1.1-5.9-1.2-4.9c-0.2,0.1-2.8,1.5-2.9,1.7c-1.4,1.7,3.4,1.8,1.6,3.3c-1.1,0.9-6-2-6.6,0.4
				c-0.3,1.2,4.8,8.7,0.4,9.5c-0.9,0.2-1.8-1.3-2.6-1.4c-1-0.2-2.2,0.8-3.1,0.7c-0.6-0.1-0.5-1.7-0.9-1.8c-2.4-0.1-9.3,5.2-11.5,5.1
				c-0.9-0.1-0.8-3.2-3-2.5c-0.3,1.3,0.7,4.1-0.5,5c-4.4,3.4-9.1,2.7-14,4c-4.8,1.3-15.8,8.5-19,8.3c-2.9-0.2,4.2-6,5.1-6.5
				c7.7-4.7,16.9-7.2,24.8-10.7c4.1-1.9,8.1-7.2,11.8-8.1c3-0.7,2.8,1.8,1.7,3.8l3.3,0c0.6-1.7-2.5-3.1-2.5-3.7
				c0-2.6,19.3-8.5,21.5-12.4c-1.6-2.5-2.4,1-4.5,0.4c-1.3-0.3-1.4-2.9-1.3-4.1c-2.4,0.4-3.6,2.5-6,3.5c-4.6,1.9-9.7,2.2-14,3.3
				c-2.8,0.7-11.5,7.4-14.4,8c-1.8,0.3-3.3-0.8-4.8-0.7c-7.9,0.6-7.6,3.8-13.5,6.4c-1,0.4-2.4,0-3.3,0.4c-0.7,0.4-0.6,3-2.6,2.3
				c-0.7-5.1-7.1,2.1-5.8-5c-7.5,2.4-14.6,1-22.3,0.8c-0.3,1.3,2.4,1.1,2.5,2.1c0.2,2.3-9.8,0.6-7.5-3.7l-14.4-4.2
				c-1.2,0.1-0.4,5.9-2.5,5c-3.2-1.3-0.6-3.3-0.8-4.1c-1.8-6.1-9.2-9.1-13.4-12.7c-5-4.4-9.3-9.7-14.4-14.2c1.5-6.5,10,3.7,10.7,2.9
				l-6.6-10.3c-2.5-2.5-5.2-4.8-7.8-7.1c-0.9-0.8-1.3-2-2.9-1.6c1.2,2.1,3.2,3,4.2,5.3c0.4,0.8,1.8,5.8-0.5,4.6
				c-0.2-0.1-3.6-3.6-3.8-3.9c-0.8-1.3-0.5-3.6-1-4.2c-1.3-1.5-5.5,0.7-0.3-5.2c1.1-1.3,3.2-1.2,3-2.8c-1.2-4.8-11.6-9.6-9.9-14.8
				c0.4-1.3,3.1-1.1,3.3-5.9c0-1.3-1.3-9.1-1.7-9.5c-0.2-0.2-2.5,1.4-3.3,0.8c-0.7-0.5-5.3-13.5-5.8-15.3
				c-1.7-5.8-0.7-10.8-2.7-16.3c-0.7-2-2.7-3.9-3.1-5.2c-0.7-2.3,2.8-0.7,3.3-1.2c0.8-0.8-1.3-7.4-0.8-9.1l2.5,0.8
				c2.1-3.9-1.2-5.9-1.4-7c-0.3-1.7,3-2.8,3.1-3.3c0-0.3-1.8-2.3-1.4-5.6c0.5-4.6,2.9-4.7,4.1-7.5c0.5-1.2,3.1-8.5,3.1-9.4
				c0.1-2-2.9-1.3-2.5-3.2l5.8-6.6l-3.3,0.4c-1.1-3.5,3.6-5,4.1-6.2c1.5-3.4-3.3,0-2.4-4.9c0.2-1.1,4.9-9.8,5.7-10.7
				c0.7-0.8,1.7-0.5,2.6-0.5c-4.3-4.5,1.2-5.5,2.1-8.3c1.9-6.2,1.4-3.2,5.4-7.8c5.3-6.1,7.5-14,12.4-19c0.9-0.9,7.5-6.2,5.7-1.8
				c-0.5,1.3-3.2,2.3-1.9,3.8c1.4-2.6,8-5.6,9.1-7.4c2.2-3.4-5.3-4.9-3.8-6.6c0.4-0.4,5.3-1.2,6.6-2.1c1.3-0.9,1.5-2.5,2.6-3.2
				c3.7-2.6,8.2-2.2,10.7-3.4c1.1-0.5,2.8-4.6,3.7-4.5c0.7,0,1.9,4.6,4.5,3.3c-2.5-2.8,2.6-6.7,4.9-7.1c1.6-0.2,2.7,2.6,3.3,2.1
				c0.3-0.2,0.4-3.8,3.7-3.3c0.2,0,0.7,3.3,2.1,1.7c0.3-0.4-1.2-3-0.8-3.3l8.3,0.8c0-1.2-3.6-2.6-1.7-3.7c0.9-0.5,5.1-1.4,6.3-1.3
				c2,0.1,0.5,1.9,2,1.7l1.3-3.3l2.1,4.1c0.3-5.5,4.4-3.4,7.7-4.1c0.6-0.2,0.5-1.5,1.1-1.6c2.1-0.5,5.2,0.5,7.1,0
				c0.5-0.1,1.5-2.4,1.4-2.5c-0.1-0.2-3.6-1.5-3.9-1.5c-6.9-1.1-33.5,5-40.5,8c-3.2,1.3-5.8,3.6-9.2,4.9c-6.2,2.3-14.1,0.5-18.8,4.4
				c-4.9,4-5,2.9-10.1,5.6c-3.1,1.7-6.3,6.4-9.8,6c-3.2-0.4,3.6-5.2,4.3-5.6c20.9-14.8,59.5-28.5,85-30c31.8-1.8,55.4,6.3,82.1,21.4
				C770.8,23.5,779.7,29.1,778.2,30.5z M707.9,8.2c-4,0.3-8.8-0.2-12.7,0.1c-0.8,0.1-3.9,0.3-3.8,1.5c4.8-0.9,10.4,1.5,14.7,0.3
				C707.6,9.6,708.3,10.3,707.9,8.2z M719.5,11.5c-1.1-2.1-3.6-4.9-5.8-2.1L719.5,11.5z M699.3,90c-4-0.5-8.7,0.3-12.8,0
				c-0.2-3,2.9-2.6,5-2.5c1-3.8-7.9-0.4-8.2,0.1c-0.5,0.7,0.7,2.3,0.6,2.9c-0.2,1-10.4,2.7-12,2.6c-1.3-0.1-1.9-1.4-3.7-1.3
				c-5.2,0.2-24.6,13.3-28.3,17.3c-3.6,3.8-15,21.3-16.1,25.4c-0.5,2-1.2,5.1-0.9,7.2c1.5,8.5,3,17.8,5.4,26
				c0.4,1.4,0.4,2.8,0.4,4.2c1.4,0,1.2-2.2,2.4-2.9c2.7-1.5,1.8,1.8,2.2,2.8c4.4,11.2,6.2,22.7,16.5,30.7c3.7,2.8,8.7,1.6,6.2,7.4
				l17.9-8.2c1.9-0.3,3.2,1.5,4.9,1.6c2.5,0.2,9.7-2,11.5-1.6c0.2,0,1.6,1.2,0.9,1.7l-2.1,2.5c2.6,0.6,4.6-0.1,6.2,2.5
				c0.3-7.4,3.2-2.4,4.1-2.4c0.8,0,7-1.5,8.1-1.8c0.7-0.2,0.6-1.4,1.2-1.6c4.8-1.4,1.5,3.9,4,6.6c2.3,0.2-0.3-3.1-0.3-4.6
				c0-0.9,0.4-1.9,0.8-2.8c3.7-0.2,7.1-1.4,7.7,3.2c0.5-2.9,7.1-4.7,7.9-2c0.5,1.9-2.2,3.6-2.4,5.1c-0.1,1.5,2.6,2.6,2.4,4.4
				c3.9-5.9,6.6-3.9,11.8-5.1c4.8-1.2,10.5-4.9,12.9-9.4c6.7-12.7,13.1-50.6,6.3-63.2c-1.4-2.5-0.8,1.4-2.5,0.8
				c-1.5-2-4.5-3.8-5.8-5.7c-2-2.8-2.1-6.5-3.3-8.3c-0.3-0.4-5.4-3.7-7-5.4c-3.1-3.2-5.2-7.2-8.7-10.3
				C724.2,98.4,710.2,91.3,699.3,90z M643.4,203.3c-1.1-2-1.9-4.8-4.1-5.8c-0.2,1,0.4,3.6-0.1,4.1c-0.6,0.6-5.5-1.2,0.5,4.2
				C640.4,204,641.4,203.5,643.4,203.3z M648.2,214.2c-0.8-1.2-4.8-1.7-3.1-6.8l-4.1,0.8c-1.3,1.2,5.2,7.3,6.2,8.3
				C648.8,217.2,648.7,215.1,648.2,214.2z M612.8,262c1.9-2.1-7.7-8.9-7.4-5.4L612.8,262z M747.6,263.7c-1.4-0.6-6.7,2.2-5,4.1
				C743.5,268.7,747.4,264.7,747.6,263.7z M660.8,276.1l-3.3-3.3c0,0.9,0,2.4-0.8,3c-1.3,0.9-4.1-0.6-4.2,1.2
				C655.8,278.7,657.6,276.3,660.8,276.1z"/>
			<g>
				<path class="st0" d="M270.4,171.5c-0.8,6-6.4,9.9-8.1,15.1c-1.8,5.7-5.3,21.2-6,27.1c-0.1,0.4,0,0.8,0,1.2
					c0.2,0.3,2.8-3,3.3-0.4c1.3,6.3-6.5,20-9.2,26c-2.1,1.2-2.6-1.7-2.8-1.6c-1.9,0.7-6.2,7.1-6.2,8.7c0,0.7,2.5,0.9,2.5,1.7
					c0.1,1.7-5.5,1.9-6.6,2.5c-1.3,0.7-2.5,4.7-4.2,5.8c1.7,1.4,3.9-2.3,5.4-2.1c2.4,0.4-0.4,3.9-1,4.7c-1.6,2.4-5.8,7.2-8.8,6.9
					c-1.2-0.1-2.1-1.7-2.9-1.3c-0.6,0.3-1.5,1.9-2.5,2.5c-7.5,4.4-12.7,7.3-20.4,11c-2.4,1.2-4.1,4.1-7.2,5.2
					c-4.4,1.5-8.7,0.3-13.2,0.9c-7.2,0.9-14.5,3.2-21.5,4.9c-2.5,6.2-2.9,1.8-5.8,1.7c-1.1-0.1-2.4,0.9-4.1,0.7
					c-5.1-0.5-10.2-2.4-2.2-4.5c-1.3-1.3-3-2.8-4.8-3.5c-2.8-1.1-9.7-2.1-13.1-2.6c-3.4-0.5-8.9,1.5-9.4-3.4
					c7.9-2,13.8,1.5,21.5,2.5l-0.8-4.1c2.7-0.3,4.9,0.8,6.6,2.9l-1.6,1.2c2.6,0.3,4.5,1.5,6.9-0.1c1.6-1,1.6-3.7,4.2-3.3
					c0.7,0.1,8.4,9.4-1.2,6.7c1.1,2.4,8.7,1.1,11,0.6c5.1-1,3.8-2,5.8-4.5c0.7-0.8,2.1-0.9,2.6-1.9c0.4-0.8-0.9-2.7,1-3.3
					c1.3-0.4,5.3,1,8.1,0.7c1.2-0.1,5-1,5.4-2.4c-2.4,0-4.9,0.1-7.1-0.7c-1.2-0.4-1.2-1.7-1.5-1.7c-2.5,0.2-7.2,2.5-10.2,3.1
					c-1.7,0.3-3-0.7-4.5-0.5c-4,0.7-6.6,4.1,0.2,3.1c0.2,5.9-4.8,1.7-7.8,0.8c-2.9-0.8-7.5-0.8-9.1-3.3c-0.5-0.7-0.3-2.3-0.4-2.4
					c-0.3-0.3-1.9,0.8-2.8,0.6c-0.9-0.1-4.1-2.6-5.8-3.2c-3.4-1.3-7.1-1.7-10.1-4c-3.9,0.4,2,3.2,2.1,3.7c0.1,3-4.5-0.6-5-0.8
					c-4.6-1.7-5.9,1.8-9.8-0.1c-1.9-0.9-16.9-1.1-17.8-0.5l-1.3-3.2c-0.8,0.6-9.3,2.6-11.1,2c-1.1-0.4,2,0.6,0.8,0.2
					c-1.5-0.5-3.5-0.1-5-0.8c-0.6-0.3-5.2-8.7-3.5-1.1c-5.2-0.2-9.7-3.7-14.1,1.3c2.5,1.7,12,1.9,13.2,4.1c0.3,1.9-0.6,1.2-1.9,1
					c-3.3-0.3-7.1-1.9-10.5-2.3c5.9,4.3,13.6,6.6,0,5l2.5,3.3c-0.6,0.5-13.4-3.4-15.3-4.1c-8-2.8-7.9-3.7-14-8.3
					c-1.4-1-4.7-1.4-5.4-2.9c-1.4-2.9,5.7,0.8,6.2,0.4c0.9-0.1,0.4-1,0-1.7c-1.4-2.3-17.1-16.7-20.3-19.4c-1.6-1.4-7.8-4.8-8.3-5.8
					c-0.7-1.4,0.5-1.4,1.7-0.9c2.7,1.1,5.9,4.5,7.4,5c1.3,0.5,2.8-0.6,4.9-0.1c2.5,0.6,5.1,4.3,7.4,3.4c-1.4-1.5-3.4-3.1-3.3-5.4
					l6.6,1.6l-14.6-9.8c-0.7-1-4.1-1.6-4.4-1.8c-3.7-3.7,8.7,1.1,9.1,0.8l-1.6-3.3c4.7-0.8,8.6,2.6,13.2,2.5c-2.2-3,1-2.4,0.8-2.9
					c-0.8-2.2-3.9-0.1-4.1-0.4c-0.2-0.2-1.6,0.9-2.1,0.3c-0.4-0.5-10.4-4.2-11.8-5.2c-1.5-1.1-1.5-3.3-3-4.5c7.9,1.4,4.8-3.4,6-8.1
					c0.3-1.1,2.5-3.4,2.3-3.9c-0.1-0.1-1.4,0.2-1.9-1c-0.9-2.2-1-3.2-2.1-5.5c-1.3-2.8-2.1-19.6-3.8-22.1l-2.1,20.3
					c-1.3-5.1-2.9-26.2-2.5-31.5c0.1-1.7,3.2-14.7,3.8-16.1c0.2-0.5,1.8-2,2-1.7c0.2,0.7-0.9,2.1-0.8,2.4c0.1,0.2,2.9,1.9,3.6,0.9
					c2.2-3,1.3-6.2,1.4-6.5c0.1-0.3,3.7-3.7,4-3.8c0.5-0.2,1.5,0.6,1.7,0.4c1.7-2.3-5.1-2-2.9-4.1c0.2-0.2,4.9-2.2,5.2-2.3
					c4.8-0.8,6.4,3.9,5.1-6l-2.5-0.4c1.8-3.4,5.8-4.1,8-5.7c0.9-0.6,2.7-3.6,2.9-3.7c0.8-0.3,2.3,1.6,3.6-0.2
					c0.2-0.3-0.5-1.6-0.4-1.6c0.7-0.4,14.2-1.7,14.9-1.3c0.6,0.3,3.1,3.9,4.1,4.8c0.4,0.4,1.6-0.1,2,0.5c0.8,1.1,0.7,3.2,1.7,4.2
					c1.3,1.3,3.8,0.8,4.9,1.6c0.6,0.4,0.4,1.5,0.8,2.2c0.2,0.3,2.4,1.1,1.3,2.8c-0.3,0.4-4.6,0.3-3.3,2.5c0.1,0.1,1.1-0.9,2.5,0.3
					c5.3,4.6,8,15,9,21.7c0.7,4.6-2,10.1,4,11.6c2,0.5,4.4-1.4,5.2-1c0.7,0.3,5.6,4.6,4.9,5.4l-2.5,0.4c1.9,1.4,3,3.6,4.4,5.1
					c0.3,0.3,1.6,0.1,1.9,0.4c0.5,0.5,1.2,4.2,2.7,6c2.5,3,7,6.3,10,9c1,0.9,3.3,4.5,4.1,5c2.5,1.5,4.5-2.3,7.5,1.7
					c0.6,0.8,0.6,2.5,0.9,2.7c2.9,2.5,26.8-1.1,31.6-2.4c4.9-1.3,17-5,15.4-11.8c-0.4-1.9-6.2-0.4-0.1-6.8
					c4.1-4.2,9.4-6.4,10.6-13.4c2-11.5,1.1-32.6-3.2-43.5c-7.3-18.3-20.5-27.5-39.5-31.5c-0.8-0.2-2.4,0.6-2.5,0.4
					c-0.3-0.4,0.8-4.1-1.3-5c-1.9-0.8-1,3.1-2.5,3.3c-1-0.1-4.3-2.6-4.5-2.5c-0.5,0.4-0.3,4.3-3.7,4.9c-7.1,1.3-18.8,1.4-26.4,1.7
					c-5.1,0.2-10-0.5-15-0.8c-0.4,0,0,1.6-1.5,1.6c-5.6,0-11-4.6-16.8-5.6c-4-0.7-14.1-0.2-16.7-2.3C54,85.9,41.9,78,40.2,77.4
					c-1.7-0.6-2.9,0.3-4.4-0.4c-2.2-0.9-4.4-4.7-6.9-5.6c-2.1-0.8-4.3,1.2-5.8,0.1c-1.1-0.9-0.5-3.4-0.8-3.7
					c-0.2-0.2-3.4-0.1-4.7-0.6c-0.9-0.3-1-1.5-1.6-1.9C14,64.2,5.2,60.4,5,59.8c-1.4-4.2,6.3-1.1,7.4-4.5c-3,0.5-5.2-3.5-6-3.9
					c-1.5-0.8-5,0.2-6.4-2.3c13.4-7.7,27.9-13.5,42.8-17.5c8.4-2.3,17.3-3.2,25.6-5.8c14.6-4.5,26.1-12.4,42.2-15.7
					c18.3-3.7,52.4-1.2,69.9,5.7c18.1,7.2,26.7,17.4,40.3,30c5,4.6,11.9,11.4,16.3,14.5c3.7,2.5,6.1,2.3,4.4,8.2
					c3.6-2.4,3.7,3.2,5.4,5c1,1.1,2.7,0.7,2.9,0.8c0.3,0.3-0.8,2.1-0.8,2.9c0.1,1.6,2.8,4.3,1.6,7l3.3-1.6c1.3,2.8,1.6,6.4,2.9,9.1
					c1,2.1,2.7,3,3.6,4.7c0.5,0.9,4.3,18.7,4.4,19.7c0.2,4.4-3.7,12.3-0.1,15.3l2.5-4.1c1,3.4,2.6,8.3,1.7,11.8
					c-0.2,0.9-2,0.8-2.4,1.9c-0.5,1.5,0,3.6-0.1,5.3c1.5-1.6,4.1-2.5,4.2,0.4c0,2.7-3.5,2.4-4.2,3.4c-1.7,2.4-0.4,18.3-1.6,22.6
					c1.7,0.2,1.4,0.2,1.9-1c1.5-3.6,0.7-19.8,1.5-20.5c0.2-0.2,1.8,0.1,2.5,0C269.8,157.5,271.3,165.4,270.4,171.5z M120.7,85.1
					c-1.5-0.2-2.9,0-3.3,1.6C119,86.9,120.3,86.7,120.7,85.1z M201.8,157.8l0-15.3l-2.5-11.2c1,7.9,1.3,15.7,1.6,23.6
					C201,156,200.3,158,201.8,157.8z M263.8,137.2c2.2-0.8,2.2-2.8,0.4-4.1L263.8,137.2z M199.3,175.2l1.7-14.9l-2.4,12.1
					L199.3,175.2z M92.4,185.9l-1.3,0.4l1.3,4.1l1.3-0.4L92.4,185.9z M252.2,229.8c-1.4-1.4-5.6,4.9-5,6.6c1.6,0.5,3-2.3,3.6-3.4
					C251.3,232.3,252.9,230.5,252.2,229.8z M202.6,264.5l-5.8,0.8l0.8,2.1l-6.6,1.2c1.3,1.8,1.8,2.9,0.8,4.9
					c3.9,0.8,3.8-3.4,5.2-4.8C197.8,268.1,202,266.6,202.6,264.5z M190.2,269.5c-1.4-0.2-4.6,1.3-3.3,2.5
					C187.6,272.6,190,270.6,190.2,269.5z"/>
				<path class="st0" d="M295,104.9c-0.2-9.5,4.4-15.5,5-24.4c0.1-2,0.6-5.5-2.5-5.3c0.9,5.9-2.4,11.5-3.3,17
					c-0.6,3.4,1.8,5.3-1.6,8.3c-4,3.5-4,2.1-6.8,8c-3.1,6.5-6.3,14.8-6.5,22c-3.4,0.9-0.3-3.7-2.5-4.1l-2.5,5.8
					c0.8-10.5,6.5-20.4,8.7-30.6c1.1-4.8,1.1-9.3,2.1-14l4.2,1.4c1.8,2-0.9,8.2,2.4,7.7c0.4-0.4,1.8-10.7,1.7-12
					c-0.1-1.9-1.8-3.8-1.6-4.8c0.2-1,4.3-4.7,4.1-7c11.7,2.3,8-16.4,16.8-19.2l1.7,2.5c2.5-2,6.4-2.8,6.2-6.6c1.6,0.6,1,4.9,4,3.2
					c0.2-0.1,0.5-1.7,1.3-2.4c6.2-5.4,14.4-9.2,18.2-17.4c0.4-0.8,1-2.8,0-3.3l-8.3,6.6c-4,1.2,2.7-5.2,3.3-5.7
					c2.9-2.5,6.8-5,10.2-6.7l-1.5-4.9l3.6,0.8l1.4-3.3l2.9,0l0.4-3.4l4.4,0.9c3.2-7.1,7.6-4.6,12.4-6c1.1-0.3,2.1-1.8,3.3-2.5
					c3.9-2,4.2-0.1,6-5.6l1.2,0.1c0.1,0.4,0,1.2,0.3,1.3c0.6,0.4,13.7,1,15,0.8c0.5,0,5.6-2.9,5.5-0.2c-0.1,2.1-19.5,3.5-21.5,7
					c11.9-0.7,22.8-6.1,34.7-5L414,2.5c1.6,0.4,3.5-0.6,4.7-0.6c3.1,0.1,4.6,3.9,7.7,0.6c0.2,2.6,2.3,3.1,4.6,3.3
					c5.6,0.7,9.5,1,10.8-5c4.8,2.7,10.6,2.1,15.5,3.5c2.8,0.8,6.3,4.3,9.1,5.7c4.2,2.3,22.3,11.4,23.5,15.3c0.8,2.5-0.9,5.8,3.5,5.2
					l-1.6-2.9c3.9-0.6,6.6,4.2,9.6,6.1c1.5,0.9,4.3,1.2,5.3,2.2c1,1,0.7,2.8,0.8,2.9c0.3,0.3,2.1-0.8,2.9-0.8
					c2.2,0.1,4.5,4.1,5.7,5.8c20.4,29.4,29.9,51.8,35.4,86.9c2.6,16.7,0.7,29.6-0.7,46c-0.1,1.1,1.3,2.1,1.3,3.7
					c0.2,9.8-2.9,29.8-4.2,40.5c-0.3,2.8-3.5,16.8-3.1,17.6c0.2,0.4,2-0.2,1.4,2.2c-0.1,0.3-2,1-2.5,5c-0.4,3.4-1.2,9.5,0.8,12
					l-5.8,0.8c-0.4,1.4,2,0.4,1.6,1.2c-0.7,1.7-10.5,6.9,0.8,6.6c0.3,2.9-2.5,3.1-3.9,5.1c-1.6,2.2-2.1,5.8-3.5,8.1l2.9,0.4l0.4,1.6
					c-2.4,0.3-2.7,4.6-4.3,6.9c-1.8,2.7-4.9,5-8.1,5.5l0.4-2.5l-13.2,9.9l0.8-5.8c-5.2,2.9-2.2,13.9-9.1,14.9
					c-2.3,0.3-0.7-4.6-3.3-5.8c-1.4-0.6-2.9,5.3-5,5.8l-1.2-1.2l7-11.2c3,0.1,0.7,3,2.5,4.1l6.9-8l-1.6-2.8l-3.3,1.6l0-3.3
					c-0.8-0.1-1-0.1-1.7,0.4c-1.8,1.4-7.1,11.4-9.6,14.4c-1.1,1.4-3.8,5-5.3,3.8c0.4-4.3,17.3-18.7,12.3-21.8
					c-4.7-2.9-8.6,8.7-13.1,9l8.3-18.6c2-9.8,7.9-20.7,8.3-30.6c0.1-1.6,0.2-2.7-1.3-3.7l-2.1,1.6c-3.2-4.2,2.5-7.5,2.5-8
					c0.2-1.7-1.5-3.2-1.7-4.9c-0.5-4,0.3-8.7,0-12.8l2.5,3.3c-0.8-2.5,0.9-6,0.8-7.9c-0.1-1.8-2.2-2.1-2.2-3.9
					c-0.2-12.5,3.9-28,4.8-40.7c0.6-8.7,0.5-20.2,0-28.9c-0.5-10.4-2.7-20.3-6.2-30.1l-6.2-0.8c-0.9,0.9,3.7,10,4.1,12
					c7,33.6-1.4,103-8.4,137.8c-0.7,3.7-5.2,12.4-7.1,16c-3.3,6.1-7.7,11.6-11.3,17.6c-1.6,1.8-1.5,0.5-0.9-0.9
					c1.3-2.9,3.4-6.3,3.7-9.5c0.1-1.1,0.5-2.5-1.2-2c-0.8,0.2-2.4,4.8-3.4,5.8c-0.8,0.8-2.2,0.7-2.6,1.1c-1.7,1.7-1.9,5.7-4.4,5.5
					c-0.2-3.4,5.2-6.6,0.8-9.1l-1.7,4.1c-1.3,0.2-0.9-1.1-0.8-2c1-13.5,5-27.7,6.6-41.4c3.1-26.4,4.7-55.2,5-81.8
					c0.1-11.5,1.6-34.4-3.3-44.7c-0.7-1.6-2.1-1.8-2.3-2.2c-2.6-5.7-5.4-13.1-10.2-17.5c-2.2-2.1-5.9-1.5-7-2.9
					c-0.8-0.9-2.1-5.1-3.5-7.2c-2.1-3.1-6.2-7-9.5-8.6c-7.1-3.5-14.7-4.2-22.4-4c-3.4,0.1-6.3,2-9.5,2.5l0-3.3l-3.3,2.5l-1.6-3.3
					l-0.8,5.8l-1.2-2.5l-2,3.8l-3.3-0.5c0.2,2.1-0.3,3.7-2.1,4.9l-2.9-4.1l-0.5,2.4c-2.9-0.7-7.7,2.3-6.9,5.8l3.7-3.3
					c1,3.1,2.5,1.7,2.7,1.9c0.7,0.5,2.1,2.9,3.5,3.5c-1.8,1.6-3.5,2.7-5.8,3.7c0.6-1.5,1.5-2.7,1.6-4.1l-4.1,4.6
					c0.6,1.2,1.8-0.1,2.5-0.4c-2.3,5.5-6.2,10.1-9.1,15.3c-1.5,1.2-0.7-1.7-0.6-2.3c0.4-1.9,1.3-3.6,1.4-5.6l-3.7,5l-2.6,14.8
					c0.8,1.3,4.3-0.3,6.4,0.1c2,0.4,8.9,5,9.7,6.9l-1.6,1.6c4.8,2.8,2.1,2.8,2.8,5.4c0.7,2.7,5.8,9.6,8.3,10.7
					c4.5,2-4.2-6.7-4.4-7.1c-0.4-1.1-0.6-2.2,1.1-2c2.1,0.3,7.9,4.8,10.2,6.3c0.6,0.4,0.7,1.5,1.6,1.9c3.6,1.8,6.6-1.4,10.1,0
					l-0.4-1.7l2.5,1.4l2.1-1.4l0,2.5c4-1.6,8.9,2.2,13.2,2.5l-0.8,2.5l6.1,0l1-1.7c1.3,3.4,2.3,2.2,1.7-0.8c4.9,0.9,16,0.3,15.3,7.4
					l-0.8-2.5c-3-1.5,0.2,5.8,0.6,6.4c0.7,1.2,2.9,2.4,3.6,4l-1.7,0.8l1.6,0.8l-0.8,3l2.5,0.5c0.4,0.6-24.8,14.4-24.8,14.4l-2.4,0.8
					l-0.9-1.6c-0.2,3.5-3,2-5.1,2.7c-9.3,3.1-19.2,1.8-29.1,3.1c-2.5,0.3-4.4,2.2-7.9,0.8l3.3,1.6c-1,0.1-2.2-0.3-3.1,0.2
					c-0.7,0.4-6.6,8.1-8,9c-1.2,0.8-2.7,0.5-3.5,1c-0.7,0.4-2.2,3-3.5,3.6l1.6,4.4c-1.7,0.3-3.3-1.3-4.9-0.5
					c-0.7,0.4-9.5,11-9.7,11.8c-0.4,1.1-0.2,2.4-0.2,3.5l4.9,0c0.6-5.7,6.7-6.7,5-13.2c2,0.6,1.7,2.9,1.7,4.5
					c0.1,4.9-3.8,15-6.1,19.6c-1.5,3.1-5.9,8.1-6.8,10.6c-0.4,1.2,1.8,1.7,1.3,3.3l-2.1-1.6l-17.9,27.5L331,287.6
					c-1.9,0.3-1.1-0.8-1.2-2c-0.2-2.7,0.3-5.2-0.8-7.9l-2.4,4.6l-2.5-0.5c0.2,2.5-0.1,4.9-2.1,6.6c-3.3,0.8-1.4-7.6-2.5-9.1
					c-3.6,3.6-4.9,9.3-6.2,14c-1.4,1.4-2.6-2.6-2.8-3.3c-2.8-8-4-27.2-5.3-36.9c-2-15-1.3-28.6-8-42.5c-3-6.2-14.6-21.9-15.3-26.8
					c-0.5-3.2,2.9,0.3,3.7,1.2c2,2.2,3.9,5.4,4.5,8.3l2.4-1.9c-0.8-3.3-5.1-3.5-4.9-7.2l7.1,4.9c1.2,0.5,1.4-0.6,1.5-1.5
					c0.3-3.3-5.5-9-5.4-14.5c0-3.1,1.9-4.9,2.4-7.6c0.5-2.5,0-5,0.6-7.7c0.7-3.6,3.2-4.8,4.2-7.4c0.8-2,1.9-9.1,0.8-10.8
					c-1.8-2.8-2.4,1.5-3.7,1.7c-1.5-5.2,1.7-10.8,2.5-16.1l-0.8-0.8c-2.7,0.9-0.8-4.4-5.8-2.1c1.3-3.8-0.5-7.1,0.2-11
					C291.1,110.9,294.5,105.7,295,104.9c0,0.9-0.4,2.8,0.4,3.3C298.1,106.5,297.6,101.1,295,104.9z M446.3,5h-1.6v0.8h1.6V5z
					 M367.5,10.2l-5.8,3.2l0.6,1.1l5.8-3.2L367.5,10.2z M348.7,34.7l-5.8,3.8l-1.7,2C343.4,41.7,349.9,35.8,348.7,34.7z M486.8,81.8
					c-5.7-9.5-13-19-23.1-24c-1.8,1.8,6.1,5.7,6.4,6c1,1.1,2,4.6,3.9,6.4c1.1,1,2.9,1.2,3.5,1.8c0.7,0.7,1,3.2,2.2,4.8
					C480.5,77.9,485.6,82.8,486.8,81.8z M489.2,84.3l-1.6,0c2.1,2.4,1,6.4,1.8,8.6c0.8,2.4,4.1-0.3,4.7,3.6c0.4,2.6-0.8,4.4-0.6,6.8
					l4.1-0.8L489.2,84.3z M379.3,93.4c-2.1-0.2-2.8,1.3-2.5,3.3L379.3,93.4z M299.1,114.9c-1.3-1.5-7.4,6.3-2,7.4
					c1.8,0.4,1-0.7,1.3-1.9C298.9,118.6,299.3,116.7,299.1,114.9z M299.1,132.2l-1.6,0l0,3.3C299.1,135.1,299.3,133.8,299.1,132.2z
					 M423.1,150.4l-4.1,0l0,1.6C420.5,151.6,422.8,152.2,423.1,150.4z M295.8,195c-2.5-2.3-4.1,8.9,1.7,7.4L295.8,195z M362.8,231.4
					v-3.3H362v3.3H362.8z M520.7,229.7v-1.6h-0.8v1.6H520.7z M361.1,235.5c0.1-0.1,1-3,0.8-3.3c-1.2-0.2-1.4,2-1.6,3.3
					C360.6,235.5,361,235.6,361.1,235.5z M523.1,255.3v-1.6h-0.8v1.6H523.1z M333,266.9l0.8-4.1c-0.5-1.1-2,3-1.6,4.1L333,266.9z"/>
			</g>
		</g>
		<g>
			<g>
				<g>
					<path class="st0" d="M910,35.5l0.2,1.9l-0.6,1l-0.8,0.4l-0.8-0.3l-1.2,0.1l-0.6-0.5l-1.6-0.1l-2.2-2.1l-0.5-0.4l-0.4-1.1
						l-0.3-1.1l0.4-1l1-1.2l1.4,0.3l1.5,2l0.5,1.2l0.5,0.4l0.5,0.1l1.1,0.1L910,35.5z M904.7,34.7l-1.3,0.3l-1-0.4l-0.4-0.9
						l-0.3-0.4l-0.2-2v-0.9l0.5-0.3l0.5-0.2l0.6-0.6l0.7-1.1l0.8-0.8l0.7-0.6L906,27l2.8-1.1l0.9-0.1l1.6,1l-0.4,1l-0.7,0.1
						l-1.4,0.8l-0.6,0.1l-1.1,0.3l-0.7,0.9l-1.4,0.4l-0.2,0.6l0.1,1L904.7,34.7z M905.2,24.7l-0.4-0.3l-0.7-0.6l-0.5-0.4v-1
						l-0.2-0.8l0.1-1.2l-0.1-0.8l0.4-0.5l0.5-0.9l0.9-0.4l0.5-0.2l1.1-0.3l0.8,0.4l0.6,0.4l0.2,1.1l-0.2,0.8l0.1,1.8l-0.5,1.4
						l-0.8,1.1l-0.3,0.2l-0.2-0.1l-0.2,0.1l-0.7,0.3L905.2,24.7z M908.4,20l-0.8,0.3l-1.1-0.2l-0.3-1l0.9-0.9l0.8,0.1l0.6,0.5
						L908.4,20z M907.2,21.9h0.1l0.2,0.3l-0.1,1l-0.1,0.5l-0.1,0.4l-0.4-0.2l-0.3-0.5l-0.1-0.4l0.1-0.6L907.2,21.9z M910.5,19.1
						l-0.8-0.1l-1.2,0.4l-1.8-0.7V18l0.6-0.6l0.4-0.4l0.5-0.3l0.6-0.1l1-0.1l0.6-0.3l0.9,0.3l0.7,0.2l0.2,0.6l0.3,0.5v0.6l-0.3,0.3
						l-1.1,0.2L910.5,19.1z M918.7,24.8v1.9l-0.3,0.7l-2.1,0.4l-0.8,0.2l-1,0.1l-0.9,0.2l-0.5,0.2l-1.1-0.1l-0.8-0.1h-0.4L909,28
						v-1.2l1.6-1.2h0.9l0.6-0.2l0.6-0.3l0.4-0.8l0.6,0.1l1.5,0.4l0.5-0.7l0.6-0.3l0.9,0.4L918.7,24.8z M914.6,34.8l0.4,1.3v0.5
						l-1.3,1.4l-1.1,0.2l-0.6,0.4l-1.9-0.1l-1.1-0.5l-0.1-1.2l0.2-0.7l0.2-0.4l1.1-0.7l0.6-0.1l1.4,0.1L914.6,34.8z M920.3,33.4
						l1.2,0.8l1-0.3l0.4-0.3l1.5-0.5l0.7,0.5l-0.1,2.3l-0.7,1.5l-1.4,1.1l-0.6,0.2h-1.3l-0.9-0.3l-0.8-0.6l-0.7-0.8l-0.7-0.4
						l-0.7-0.2l-0.7,0.6l-0.4-0.2l-0.7,0.3l-1.8,0.7l-0.6,0.1l-1.2-1l-0.3-1l1.6-1.3l1-0.5l1.2-1l1.4-0.8l0.4-0.1l-0.3-0.3l-0.1-1.2
						l0.2-1.5l-0.1-0.9l0.3-1.6l-0.5-1.2l0.2-0.7L917,24l0.5-1l0.4-1.5l0.5-0.3l0.4-0.4l0.7-0.1l0.3,0.6l0.6,1.8l-0.1,2.4l-0.4,1.5
						l0.2,0.8l-0.1,1.6V31l-0.1,1.5L920.3,33.4z M917.4,20.8l-0.7-0.1L916,20l-2.1-0.5l-0.9-0.7l-0.5-0.2l-0.5-1.4l0.8-0.5l0.9-0.3
						l1.2,0.4l1.8-0.1l0.7,0.5l1.2,0.4l0.9,1.6l0.5,0.7l0.2,1.2l-0.3,2.1l-0.5,0.2l-1-0.3l-0.5-1.4L917.4,20.8z M916.5,31.7l0.5-1.4
						l0.5-0.4l0.7,0.6l-0.1,0.8l-0.5,0.4l-0.4,0.2L916.5,31.7z"/>
					<path class="st0" d="M915.2,96.7l0.7,0.2l0.7-0.5l0.7-0.6l0.3,0.1l0.7-0.5l0.1-1.1l0.5-0.6l0.5-1.3l-0.3-0.8l-1.7-1.1l-0.6-0.3
						l-1-0.5l-0.7-0.5l-0.2-0.9l0.9-0.2l0.8-0.3l1.4,0.2l1.6,0.8l0.8,0.5l0.7,0.2l0.8,1.6l0.5,0.5l0.3,0.5v1.7l-0.1,0.7l-0.2,0.8
						l-0.1,0.6l-0.4,0.5l-1.4,1.4l-0.4,0.6l-1.5,1.1l-2.3,0.6l-0.9,0.3l-0.6,0.3l-0.7,0.2l-0.9-0.1l-2-0.4l-0.8-0.5l-0.9-0.4
						l-0.5-0.2l-1.2,0.3l-3,0.7l-0.7-0.6l-0.5-0.7l-0.1-1.6l0.3-2.1l0.3-1.4l-0.3-0.8l0.2-1.1l0.6-0.8l0.8-0.1l0.4,0.6l0.7,1.1
						l1.2,1l1,0.5l0.7,0.8l0.4,0.8l0.7,0.3L911,96l0.7-0.2l0.9,0.6l0.7,0.5l0.9-0.5L915.2,96.7z M907.5,82.8l-0.4,0.3l-0.4,0.5
						l-0.3,0.6l-0.4,0.6l-0.5,0.1l-0.3-0.4l-0.5-1.2v-0.6v-0.4l0.2-0.6l0.2-0.6l1-1.5l0.5-0.2l1.8-0.4l0.7,0.1l0.4,0.7l-0.6,0.8
						l-1.3,1.1l-0.3,0.3L907.5,82.8z M907.1,85.6l0.7,0.9l0.1,0.6l-0.4,0.4l-1.8-0.5l-0.5-0.7l-0.3-0.5l0.5-1.8L906,84l1,1
						L907.1,85.6z M911.5,89.4L911,89l-0.6-0.1l-1.4-0.1l-1.4-1.1l0.8-0.9l1.3-0.1l1.2,0.1l1,0.2l2.3,0.5l1.4,0.6l0.2,0.3l-0.1,0.9
						l-0.8-0.3l-0.6,0.1h-0.6l-0.9,0.1l-0.8,0.2L911.5,89.4z M911.9,79.8h-0.9l-0.9,0.2l-1.1,0.4l-0.6-0.9l0.8-0.7l1.2-0.5l0.9,0.3
						l0.4-0.3l1.3,0.3l0.5-0.1h0.5l0.9,0.6l1.7,0.6l0.2,0.8l-0.3,0.4l-1.8-0.3l-1.1-0.2l-0.8-0.2L911.9,79.8z M918.5,83.4l-1-0.4
						l0.1-1l0.8-0.3l0.5,1.3L918.5,83.4z M917.7,81.1l0.2-0.6l0.8-0.5l0.8-0.8l0.4-0.2l1.1,0.9l0.3,1.3l-0.5,1.5l-0.3,0.2l-1.6-0.6
						l-0.3-0.4L917.7,81.1z M920.3,83.2l0.7,0.5l0.1,0.5l0.3,0.9l-0.4,0.5l-0.4-0.3l-1.1-1.1l0.2-0.8L920.3,83.2z"/>
					<path class="st0" d="M912,159.2l0.5-0.3l1.3-0.1l0.6,0.4l0.4,0.9l0.7,0.5l0.8,0.3l1.1-0.3h0.8l1.5-0.2l1.6-0.1l1.1,0.3l0.8,0.9
						v0.7l0.3,0.5l-0.1,0.8l-0.8,1l-0.8,0.2l-2.2-0.1l-0.9-0.3l-0.9,0.2l-3.2,0.1l-0.5-0.3l-0.6,0.1l-0.6,0.3l-1.2-0.1h-0.6L910,165
						l-0.7-0.3l-0.7-0.1l-0.5,0.1l-1.4-0.3l-2.1-0.2l-1.6-0.5l-0.3-1.7l0.5-0.8l1.2-0.6l1.2,0.1l0.6-0.2l2.9,0.2l2.2-0.4L912,159.2z
						 M908.2,143l1.4,0.6l1.7,0.6l0.1,0.9l-0.7,0.3h-0.5l-0.7,0.5l-0.9-0.1l-0.6-0.4l-1.5,0.3h-0.8l-0.9-1l-0.3-0.9l-0.1-0.8
						l0.4-0.4l2,0.2l0.9,0.1L908.2,143z M913,131.8l1,0.6l0.8,0.4l0.4,0.6l0.4,0.9l0.2,1.1v0.9l-2.4,1.1l-1.9,0.2h-0.4l-1.2-0.2
						l-0.2-0.4l-0.4-2.2l0.1-0.7l0.3-0.6l0.6-0.5l1.5-0.7L913,131.8z M912.3,153.7l-0.3-0.8l-0.2-1.5l0.5-2.4l-0.1-0.7l0.1-1
						l-0.4-0.9l-0.6-0.7v-1.2l0.9-1h1.5l1.1,1.8l-0.1,2.8v1.6l-0.1,1.1l0.1,0.7l0.1,1.7l-0.1,0.5v0.6l-0.2,1.6l0.1,0.8l0.2,1
						l-0.2,1.1l-0.7,0.6l-1.1,0.7l-0.9-0.8l-0.4-1.2l0.3-1.4L912.3,153.7z"/>
					<path class="st0" d="M910,222.9l0.2,1.9l-0.6,1l-0.8,0.4l-0.8-0.3l-1.2,0.1l-0.6-0.5l-1.6-0.1l-2.2-2.1l-0.5-0.4l-0.4-1.1
						l-0.3-1.1l0.4-1l1-1.2l1.4,0.3l1.5,2l0.5,1.2l0.5,0.4l0.5,0.1l1.1,0.1L910,222.9z M904.7,222.1l-1.3,0.3l-1-0.4l-0.4-0.9
						l-0.3-0.4l-0.2-2v-0.9l0.5-0.3l0.5-0.2l0.6-0.6l0.7-1.1l0.8-0.8l0.7-0.6l0.8,0.3l2.8-1.1l0.9-0.1l1.6,1l-0.4,1l-0.7,0.1
						l-1.4,0.8l-0.6,0.1l-1.1,0.3l-0.7,0.9l-1.4,0.4l-0.2,0.6l0.1,1L904.7,222.1z M905.2,212.2l-0.4-0.3l-0.7-0.6l-0.5-0.4v-1
						l-0.2-0.8l0.1-1.2l-0.1-0.8l0.4-0.5l0.5-0.9l0.9-0.4l0.5-0.2l1.1-0.3l0.8,0.4l0.6,0.4l0.2,1.1l-0.2,0.8l0.1,1.8l-0.5,1.4
						l-0.8,1.1l-0.3,0.2l-0.2-0.1l-0.2,0.1l-0.7,0.3L905.2,212.2z M908.4,207.4l-0.8,0.3l-1.1-0.2l-0.3-1l0.9-0.9l0.8,0.1l0.6,0.5
						L908.4,207.4z M907.2,209.3h0.1l0.2,0.3l-0.1,1l-0.1,0.5l-0.1,0.4l-0.4-0.2l-0.3-0.5l-0.1-0.4l0.1-0.6L907.2,209.3z
						 M910.5,206.5l-0.8-0.1l-1.2,0.4l-1.8-0.7v-0.7l0.6-0.6l0.4-0.4l0.5-0.3l0.6-0.1l1-0.1l0.6-0.3l0.9,0.3l0.7,0.2l0.2,0.6
						l0.3,0.5v0.6l-0.3,0.3l-1.1,0.2L910.5,206.5z M918.7,212.3v1.9l-0.3,0.7l-2.1,0.4l-0.8,0.2l-1,0.1l-0.9,0.2l-0.5,0.2l-1.1-0.1
						l-0.8-0.1h-0.4l-1.7-0.2v-1.2l1.6-1.2h0.9l0.6-0.2l0.6-0.3l0.4-0.8l0.6,0.1l1.5,0.4l0.5-0.7l0.6-0.3l0.9,0.4L918.7,212.3z
						 M914.6,222.2l0.4,1.3v0.5l-1.3,1.4l-1.1,0.2l-0.6,0.4l-1.9-0.1l-1.1-0.5l-0.1-1.2l0.2-0.7l0.2-0.4l1.1-0.7l0.6-0.1l1.4,0.1
						L914.6,222.2z M920.3,220.8l1.2,0.8l1-0.3l0.4-0.3l1.5-0.5l0.7,0.5l-0.1,2.3l-0.7,1.5l-1.4,1.1l-0.6,0.2h-1.3l-0.9-0.3
						l-0.8-0.6l-0.7-0.8l-0.7-0.4l-0.7-0.2l-0.7,0.6l-0.4-0.2l-0.7,0.3l-1.8,0.7l-0.6,0.1l-1.2-1l-0.3-1l1.6-1.3l1-0.5l1.2-1
						l1.4-0.8l0.4-0.1l-0.3-0.3l-0.1-1.2l0.2-1.5l-0.1-0.9l0.3-1.6l-0.5-1.2l0.2-0.7l0.4-0.5l0.5-1l0.4-1.5l0.5-0.3l0.4-0.4l0.7-0.1
						l0.3,0.6l0.6,1.8l-0.1,2.4l-0.4,1.5l0.2,0.8l-0.1,1.6v1.4l-0.1,1.5L920.3,220.8z M917.4,208.3l-0.7-0.1l-0.7-0.7l-2.1-0.5
						l-0.9-0.7l-0.5-0.2l-0.5-1.4l0.8-0.5l0.9-0.3l1.2,0.4l1.8-0.1l0.7,0.5l1.2,0.4l0.9,1.6l0.5,0.7l0.2,1.2l-0.3,2.1l-0.5,0.2
						l-1-0.3l-0.5-1.4L917.4,208.3z M916.5,219.1l0.5-1.4l0.5-0.4l0.7,0.6l-0.1,0.8l-0.5,0.4l-0.4,0.2L916.5,219.1z"/>
					<path class="st0" d="M906.8,277.7l1.8-0.1l0.5,0.3l0.1,1.8l0.1,1l0.1,0.9l0.1,0.6l0.1,0.6l-0.4,0.5l-0.1,0.8l0.3,1.2l0.5,0.3
						l1.9,1.1l0.5,0.6l-0.1,0.4l-0.6,0.8l-1.1-0.1l-0.6,0.2H909h-1.1l-0.6-0.2h-2.7l-0.5,0.3l-0.7-0.3l-1.2,0.4l-0.6-0.5l-0.7-0.7
						l0.4-1l0.7-0.8l0.7-0.3l1.1,0.1l1.2-0.7l0.6-0.1l0.1-0.6l0.4-0.9l0.1-1.1l0.3-0.6l-0.1-0.6L906.8,277.7z M917.5,270.4l-0.5-0.3
						l-0.7,0.3l-0.6,0.1l-2.7,1.2l-1,0.3l-0.4,0.6l-0.6,0.8l-0.8,0.6l-0.3,1.3l-0.9,3.8l-0.8,0.4l-1.9-0.3l-0.2-0.9l-0.3-0.5
						l-0.3-0.9l0.1-3.7l0.3-0.5v-0.7l-0.7-0.7l-0.7-0.7l-0.9-0.1l-0.7-0.4l-0.3-0.6l-0.7-0.8l-0.3-0.7l0.1-0.4l0.3-0.6l0.3-0.2
						l1.6-0.1l1.2,0.5l2.9-0.2l0.6,0.5l1.4,0.7l0.3,0.8l1,0.3l0.5-0.2l0.7-0.7l0.8-0.4l0.8-0.4l0.5-0.4l0.6-0.4l1.4-0.3h1.5l0.8,0.2
						l1.2,0.4l0.5,0.3l1.2,1.2l0.3,0.7l0.3,1.2l0.2,0.5l0.1,0.7l0.5,1.8l-0.4,1.2v0.7l-0.4,0.8l-0.2,0.7l-0.7,0.4l-0.7,0.1l-0.6-1.5
						l0.1-1l-0.1-1.1l-0.4-0.8l-0.1-1.1l-0.4-0.7l-1.3-0.9L917.5,270.4z M921.4,286.5l-0.3,1.7l-0.5,0.1l-1,0.2l-1.2,0.1l-1.7-0.3
						l-1.1-0.9l1-1.3l0.7-0.1l3,0.1L921.4,286.5z M919.7,281.6l0.9-0.6l0.5,1.1v0.8v0.4l-0.5,0.4l-0.9,0.5l-0.2-1.2l0.2-0.4
						L919.7,281.6z M921,275.4l0.8-0.1l0.5,0.3l0.3,1.9l0.2,4.1v2.9l0.1,0.7l1.7,0.8l0.4,0.3l0.9,0.4l0.2,0.8l-0.1,0.2l-0.3,0.6
						L925,288l-1.9,0.4l-0.7-0.1l-0.8-0.5l-0.5-0.1l-1-0.9l0.5-1.1l-0.1-0.8l0.1-0.8l-0.3-1.2l0.2-1.3l-0.1-0.9l0.3-0.6l-0.3-0.9
						l-0.4-1.4L921,275.4z"/>
				</g>
				<g>
					<path class="st0" d="M966.8,178.2l-1.7-0.2l-0.4-0.3l-0.4-1.2l-0.2-1.7l-0.4-1.5l-0.5-0.3l-2.3-0.1l-1.7-1.1l-0.3-1.1l0.4-0.7
						l1.7-1.2l1,0.3l4.4,0.2l0.4,0.3l0.5,0.6l0.6,0.9l-0.4,1.5l0.2,1.6v0.7l-0.2,1.1l-0.2,0.8L966.8,178.2z M970.9,178.8l0.6,1v0.6
						l-0.5,0.6l-0.5,0.6l-0.8,0.9l-0.2,0.7l-0.6,0.9l-1.1,1.5l-0.4,0.9l0.2,1.5l-0.3,1.5l0.3,0.9l0.1,1l-0.1,0.5l0.2,1.1l-0.1,0.9
						l-0.3,0.5l-0.5,0.7L966,195l-0.5-0.3l-0.4-1.5l-0.3-1l-0.3-1.6l0.1-0.6l-0.4-1.2l0.1-0.5l0.2-2.4v-0.5l0.3-0.5l0.1-1.1l-0.2-1
						l0.1-0.6l-0.1-0.5l0.1-1l-0.2-1.5l0.1-0.8l0.4-0.8l1.4,0.1l0.4,0.3l0.1,1.4l0.5,1.1l0.9,0.1l1.2-0.8l0.5-0.3L970.9,178.8z
						 M978.4,189l-0.5-1.6l-0.3-1.5l0.1-0.5l-0.5-1.2l-0.5-1.7l-0.6-0.5l-0.7-1l-0.8-0.6l-0.7,0.3l-2-0.1h-0.7H970l-0.4-1.8l0.8-0.9
						l1.9-0.8l0.7-0.2l2.9,0.4l1.4-0.5l0.8,0.5l0.3,0.5l0.6,1.7l0.7,0.6l0.6,0.8l0.5,0.5l0.3,1l0.4,1.5l0.3,1.6l0.3,2.4l-0.4,1.8
						l-0.4,1.9l-0.3,0.6l-0.1,0.7l-0.7,1.2l-0.4,0.8l-1.4,1.7l-1.6,1.4l-0.9,0.5l-1.1,0.1l-1.6,0.4l-2-0.7l-0.5-0.2l-0.9-0.7
						l-1.4-0.4l-0.5-0.1l-1.4,0.9H965l-0.3-0.3l-0.3-1.6l0.3-1.1l0.2-0.9l0.2-0.6l0.5-0.3l0.4-0.5l0.7-0.1l1.4,0.1l0.7,0.7l0.8,0.6
						l0.6,0.3l0.7,0.4l1,0.7l1,0.2l0.7,0.1l1-0.5l2-1.5l0.3-0.8l0.5-0.6l0.6-0.9l0.3-0.9v-0.8L978.4,189z M966.7,190.3l0.5-1.4
						l0.5-0.4l0.7,0.6l-0.1,0.8l-0.4,0.5l-0.4,0.1L966.7,190.3z"/>
					<path class="st0" d="M969.3,257.3l0.5-0.3l1.3-0.1l0.6,0.4l0.4,0.9l0.7,0.5l0.8,0.3l1.1-0.3h0.8l1.5-0.2l1.6-0.1l1.1,0.3
						l0.8,0.9v0.7l0.3,0.5l-0.1,0.8l-0.8,1l-0.8,0.2l-2.2-0.1l-0.9-0.3l-0.9,0.2l-3.2,0.1l-0.5-0.3l-0.6,0.1l-0.6,0.3l-1.2-0.1h-0.6
						l-1.4,0.4l-0.7-0.3l-0.7-0.1l-0.5,0.1l-1.4-0.3l-2.1-0.2l-1.6-0.5l-0.3-1.7l0.5-0.8l1.2-0.6l1.2,0.1l0.6-0.2l2.9,0.2l2.2-0.4
						L969.3,257.3z M965.5,241l1.4,0.6l1.7,0.6l0.1,0.9l-0.7,0.3h-0.5l-0.7,0.5l-0.9-0.1l-0.6-0.4l-1.5,0.3h-0.8l-0.9-1l-0.3-0.9
						l-0.1-0.8l0.4-0.4l2,0.2l0.9,0.1L965.5,241z M970.3,229.9l1,0.6l0.8,0.4l0.4,0.6l0.4,0.9l0.2,1.1v0.9l-2.4,1.1l-1.9,0.2h-0.4
						l-1.2-0.2l-0.2-0.4l-0.4-2.2l0.1-0.7l0.3-0.6l0.6-0.5l1.5-0.7L970.3,229.9z M969.6,251.7l-0.3-0.8l-0.2-1.5l0.5-2.4l-0.1-0.7
						l0.1-1l-0.4-0.9l-0.6-0.7v-1.2l0.9-1h1.5l1.1,1.8l-0.1,2.8v1.6l-0.1,1.1l0.1,0.7l0.1,1.7l-0.1,0.5v0.6l-0.2,1.6l0.1,0.8l0.2,1
						l-0.2,1.1l-0.7,0.6l-1.1,0.7l-0.9-0.8l-0.4-1.2l0.3-1.4L969.6,251.7z"/>
					<path class="st0" d="M972.5,319.7l0.7,0.2l0.7-0.5l0.7-0.6l0.3,0.1l0.7-0.5l0.1-1.1l0.5-0.6l0.5-1.3l-0.3-0.8l-1.7-1.1
						l-0.6-0.3l-1-0.5l-0.7-0.5l-0.2-0.9l0.9-0.2l0.8-0.3l1.4,0.2l1.6,0.8l0.8,0.5l0.7,0.2l0.8,1.6l0.5,0.5l0.3,0.5v1.7l-0.1,0.7
						l-0.2,0.8l-0.1,0.6l-0.4,0.5l-1.4,1.4l-0.4,0.6l-1.5,1.1l-2.3,0.6l-0.9,0.3l-0.6,0.3l-0.7,0.2l-0.9-0.1l-2-0.4l-0.8-0.5
						l-0.9-0.4l-0.5-0.2l-1.2,0.3l-3,0.7l-0.7-0.6l-0.5-0.7l-0.1-1.6l0.3-2.1l0.3-1.4l-0.3-0.8l0.2-1.1l0.6-0.8l0.8-0.1l0.4,0.6
						l0.7,1.1l1.2,1l1,0.5l0.7,0.8l0.4,0.8l0.7,0.3l0.4,0.2l0.7-0.2l0.9,0.6l0.7,0.5l0.9-0.5L972.5,319.7z M964.8,305.9l-0.4,0.3
						l-0.4,0.5l-0.3,0.6l-0.4,0.6l-0.5,0.1l-0.3-0.4l-0.5-1.2v-0.6v-0.4l0.2-0.6l0.2-0.6l1-1.5l0.5-0.2l1.8-0.4l0.7,0.1l0.4,0.7
						l-0.6,0.8l-1.3,1.1l-0.3,0.3L964.8,305.9z M964.5,308.6l0.7,0.9l0.1,0.6l-0.4,0.4L963,310l-0.5-0.7l-0.3-0.5l0.5-1.8l0.6,0.1
						l1,1L964.5,308.6z M968.8,312.4l-0.5-0.4l-0.6-0.1l-1.4-0.1l-1.4-1.1l0.8-0.9l1.3-0.1l1.2,0.1l1,0.2l2.3,0.5l1.4,0.6l0.2,0.3
						l-0.1,0.9l-0.8-0.3l-0.6,0.1h-0.6l-0.9,0.1l-0.8,0.2L968.8,312.4z M969.2,302.8h-0.9l-0.9,0.2l-1.1,0.4l-0.6-0.9l0.8-0.7
						l1.2-0.5l0.9,0.3l0.4-0.3l1.3,0.3l0.5-0.1h0.5l0.9,0.6l1.7,0.6l0.2,0.8l-0.3,0.4l-1.8-0.3l-1.1-0.2l-0.8-0.2L969.2,302.8z
						 M975.8,306.4l-1-0.4l0.1-1l0.8-0.3l0.5,1.3L975.8,306.4z M975,304.1l0.2-0.6l0.8-0.5l0.8-0.8l0.4-0.2l1.1,0.9l0.3,1.3
						l-0.5,1.5l-0.3,0.2l-1.6-0.6l-0.3-0.4L975,304.1z M977.6,306.2l0.7,0.5l0.1,0.5l0.3,0.9l-0.4,0.5l-0.4-0.3l-1.1-1.1l0.2-0.8
						L977.6,306.2z"/>
					<path class="st0" d="M967.1,366.5l-0.4,0.5l-0.6,0.2l-0.9,0.3l-1.9,0.1l-0.5,0.3l-1.1-0.2l-1-0.5l-0.2-0.5v-1.1l0.4-0.6
						l0.6-0.5l0.5,0.1l0.7-0.2l1.9,0.3l0.9,0.6l0.8,0.1l0.4,0.8L967.1,366.5z M965.4,364.6l0.7,0.5l0.1,0.5l0.3,1l-0.7,0.3l-1.1-1.2
						l0.2-0.8L965.4,364.6z M970.5,364.7l1.3,0.3l2.2-0.4l0.7,0.1l0.9,0.2l0.9-0.3l0.5,0.2l1-0.2l1.1,0.7l0.1,1.7l-1.4,0.3h-3.3
						l-1.4-0.4l-1.2,0.4l-0.8,0.7l-1,0.6h-0.9l-0.8-0.2l-0.4-0.8l-0.7-0.6l-0.3-0.4l-0.3-0.5l0.4-1.3l0.1-0.7l0.7-1.1l0.7-0.6
						l0.5-0.2l0.7,0.6L970.5,364.7z M972.4,382.3l0.9,0.1l0.6-1.4l1.4-0.5l1-1.1l0.8-0.9l0.7-1l0.7-0.2l0.7-0.3l0.5,0.5l0.3,0.4
						l0.2,0.3l-0.4,2.3l-0.9,1.7l-0.6,1.2l-0.6,0.3l-0.1,0.5l-0.4,0.6l-0.6,0.4l-0.7,0.3l-0.6,0.3l-1.3,0.8l-0.7-0.3l-0.9,0.4
						l-1.2-0.1l-0.8,0.1l-0.6-0.5l-0.3-0.9l-1.4-0.9l-0.9-2.2l-0.1-0.6l0.3-0.7l-0.2-1.2l0.1-1l0.7-1.9l0.6-0.1l1.5,0.7l1,1.4
						l0.6,0.7l-0.2,0.6v0.5l0.1,0.8l0.4,0.6L972.4,382.3z M969.9,377.3l-1.1,0.1l-1-0.6l-0.2-1.1l0.1-0.6l-0.2-0.6l0.4-1.4l0.1-0.8
						l0.5-0.8l0.6-0.3h0.9l0.3,0.4l0.4,1l0.1,1.8l0.6,1.1L971,376l-0.7,0.7L969.9,377.3z M970.2,363.7l-1.4-0.2l-0.8-0.4l-0.2-1.8
						l-0.1-1.6l-0.1-2.1l0.2-0.6l0.9-0.7l1.1,0.4l0.5,0.2l0.3,0.6l0.6,1.2l-0.6,1.4l-0.2,0.7l0.4,1.6L970.2,363.7z M970.2,370
						l-0.5,1.6h-0.5h-0.5l-0.4-0.6l-0.2-0.7l0.4-2.2l1.7-0.3l0.4,0.5l0.4,0.9l-0.5,0.4L970.2,370z M970,365.4l-0.3-0.1l0.1-0.5
						l0.6-0.3l0.5,0.2l-0.1,0.7H970z M973.2,382.1l-0.1,0.5l-0.5,0.5l-0.5,0.1H971l-0.4-0.2l-0.2-1l0.9-0.5l0.5,0.1h0.7L973.2,382.1
						z M974.8,382.9l-1,0.4l-0.3-1.5V381l0.6-0.8l0.3,1.5L974.8,382.9z"/>
					<path class="st0" d="M966.3,444l0.7-0.3l2,0.1l0.5,0.6l1.1,0.8l0.5-0.3l1.5-0.1l0.6,0.2l0.7,0.4l1.3,0.1l0.6,0.2l0.6,0.5
						l-0.1,1.4l-0.5,0.4l-0.8,0.5l-1-0.1l-1.2,0.7l-1.2-0.4l-1.1-0.4l-0.8,0.4l-1.6,0.4l-1.7-0.5h-0.8l-0.5,0.2l-1,0.1l-0.4,0.3
						l-1.5-0.2l-0.7-0.1l-0.9-0.3l-0.8-0.7l-0.4-0.2l-0.5-0.8l0.2-1l0.6-0.7l0.5-0.3l2.1-0.3l0.7-0.1l1.8,0.7l0.7-0.5L966.3,444z
						 M966.3,431.2l-0.6-0.6l-0.7-0.4l-1.6,0.1l-2.1,0.5l-0.6-0.4l-0.7-1l-0.1-0.6l0.1-0.5l0.6-1.1l1.7,0.3l0.9,0.2h2.1h0.8l1.4,0.7
						l0.8,0.9l0.2,0.8l-0.1,0.8l-0.3,1l-1.1,0.2L966.3,431.2z M968.6,438.5l0.7,1.6l-0.1,1l0.4,0.4l0.1,0.6v1.2l-0.2,1.1l-0.4,0.5
						l-1.9,0.1l-0.7-0.3l-0.6-1.1l0.4-0.6l0.3-0.7l0.1-2.3l0.2-0.7l0.5-0.9l0.3-0.2L968.6,438.5z M967.4,432.4l0.7-0.2l0.6,0.8
						l0.2,0.5l0.6,1.6l0.1,0.4l-0.3,0.9l-0.2,1l-0.2,0.6l-0.4,1l-0.3,0.3l-0.8-0.3l-0.4-0.3l-0.4-1.9l0.2-0.9l-0.5-0.6l0.2-0.5
						l0.2-1l0.2-0.6L967.4,432.4z M968.2,433.1l-1-0.4l0.1-1.1l0.8-0.2l0.6,1.3L968.2,433.1z M970.4,435.5l-0.6-0.5l-0.3-0.5
						l0.5-1.4l0.5-1.1l0.5-0.4l0.5-0.3l1.2-0.2l0.2,0.4l-1,2.5l-0.9,0.7L970.4,435.5z M975,428.1l0.4,0.2l1.6-0.4l0.5-0.3l1.2-0.3
						l0.7-0.1l0.6,0.4l0.6,1.4v1.1l-1.1,0.5l-1.9-0.6h-1.8l-1,0.6l-0.8,0.7l-0.7,0.5l-1.1-0.3l-0.2-1.1l0.7-0.9l1.5-0.5L975,428.1z
						 M978.8,429.8l0.8-0.7l0.8-0.3l0.3-0.1l1.1,0.7l0.2,1v1.6l-0.3,0.4l-0.3,0.9l-1.6,0.5l-0.8-1l-0.2-0.9l0.3-0.6l-0.1-0.8
						L978.8,429.8z"/>
					<path class="st0" d="M966.1,507.7l-0.3,1l-0.9,0.8l-0.8-0.3l-0.5-0.2l-1-0.8l-0.8-1.2l-0.8-1.1l-0.2-0.5l-0.3-1v-1.2l-0.1-1.7
						l0.5-1.4l-0.1-2.3l0.4-0.8l1.3-1.1l0.9,0.6l0.1,0.7l-0.1,1.3l0.4,1.5l0.2,1.2l0.1,1.6l0.2,0.8l0.5,1.1L966.1,507.7z
						 M964.9,492.3l1.1,1.6l-0.8,1.2l-0.6,0.7l-0.4,0.8l-0.3,0.5l-0.5,0.4l-1.4-0.2v-1l0.1-0.8l0.8-1.6l1-0.9L964.9,492.3z
						 M963.1,494.5l0.7,0.6l0.1,0.5l0.3,1l-0.7,0.2l-1.1-1.2l0.3-0.8L963.1,494.5z M979.2,496.8l-1.2,0.6l-1.4-0.3l-0.8-0.6
						l-0.7-1.7l-1.3-0.8l-0.8-0.5l-0.7-0.3l-1-0.7l-2,0.4l-1.2,0.2l-0.8,0.2l-1,0.7l-0.7-0.1l-0.4-0.1l-0.7-0.4l0.2-1.2l0.8-1.1
						l0.7-0.5l1.5-0.1l0.9-0.4l1.6-0.2l0.8-0.1l1.1-0.5l1.1,0.3l1.6,0.7l0.4,0.4l0.7,0.5l1,0.7l0.8,0.9l0.2,0.9l0.8,1l0.4,0.7
						L979.2,496.8z M971,508.7l1.4-0.7h0.6l0.7,0.2l0.4-0.7l0.6-0.5l0.8-1l0.3-0.9l0.3-0.6l0.4-0.5l0.1-0.7l0.2-0.7l0.4-1.1
						l-0.2-1.4l-0.3-0.5l0.1-0.8l0.1-1l1.1-1.3l1.1-0.3l1.1,2.2l0.2,0.6l0.3,2.1l0.1,1.1l-0.2,0.8l-0.4,1.1l-0.5,2.4l-0.8,0.8
						l-0.1,0.6l-0.6,1.1l-0.7,0.6l-0.7,0.6l-0.9,0.6l-1.1,0.6l-0.9,0.5l-2,0.5l-0.5-0.3l-0.9,0.1l-1.8,0.3l-1-0.2l-0.6-0.3l-0.5-0.7
						l-0.9-0.2l-0.8-0.9l-0.6-1.1l0.7-0.6l1.4-0.5l1.3,0.5l1,0.2L971,508.7z M966.1,492.4h0.1l0.2,0.3l-0.1,1l-0.1,0.5l-0.1,0.4
						l-0.4-0.2l-0.3-0.5l-0.1-0.4l0.1-0.6L966.1,492.4z"/>
				</g>
			</g>
		</g>
	</g>
</g>
</svg>
